<?xml version="1.0" encoding="utf-8"?>
<!DOCTYPE svg PUBLIC "-//W3C//DTD SVG 1.1//EN" "http://www.w3.org/Graphics/SVG/1.1/DTD/svg11.dtd">
<svg version="1.1" id="Layer_1" xmlns="http://www.w3.org/2000/svg" xmlns:xlink="http://www.w3.org/1999/xlink" x="0px" y="0px"
   width="40px" height="14px" viewBox="0 0 40 14" enable-background="new 0 0 40 14" xml:space="preserve">
<g>
  <path fill-rule="evenodd"  opacity="0.7" fill="#fff"
        d="M37.000,10.000 C35.343,10.000 34.000,8.657 34.000,7.000 C34.000,5.343 35.343,4.000 37.000,4.000 C38.657,4.000 40.000,5.343 40.000,7.000 C40.000,8.657 38.657,10.000 37.000,10.000 ZM24.000,12.000 C21.239,12.000 19.000,9.761 19.000,7.000 C19.000,4.238 21.239,2.000 24.000,2.000 C26.761,2.000 29.000,4.238 29.000,7.000 C29.000,9.761 26.761,12.000 24.000,12.000 ZM7.000,14.000 C3.134,14.000 -0.000,10.866 -0.000,7.000 C-0.000,3.134 3.134,-0.000 7.000,-0.000 C10.866,-0.000 14.000,3.134 14.000,7.000 C14.000,10.866 10.866,14.000 7.000,14.000 Z"/>
</g>
</svg>
