<?xml version="1.0" encoding="utf-8"?>
<!DOCTYPE svg PUBLIC "-//W3C//DTD SVG 1.1//EN" "http://www.w3.org/Graphics/SVG/1.1/DTD/svg11.dtd">
<svg version="1.1" id="Layer_1" xmlns="http://www.w3.org/2000/svg" xmlns:xlink="http://www.w3.org/1999/xlink" x="0px" y="0px"
   width="40px" height="14px" viewBox="0 0 40 14" enable-background="new 0 0 40 14" xml:space="preserve">
<g>
  <path fill-rule="evenodd"  opacity="0.2" fill="rgb(55, 62, 66)"
        d="M33.000,14.000 C29.134,14.000 26.000,10.866 26.000,7.000 C26.000,3.134 29.134,-0.000 33.000,-0.000 C36.866,-0.000 40.000,3.134 40.000,7.000 C40.000,10.866 36.866,14.000 33.000,14.000 ZM16.000,12.000 C13.238,12.000 11.000,9.761 11.000,7.000 C11.000,4.238 13.238,2.000 16.000,2.000 C18.761,2.000 21.000,4.238 21.000,7.000 C21.000,9.761 18.761,12.000 16.000,12.000 ZM3.000,10.000 C1.343,10.000 -0.000,8.657 -0.000,7.000 C-0.000,5.343 1.343,4.000 3.000,4.000 C4.657,4.000 6.000,5.343 6.000,7.000 C6.000,8.657 4.657,10.000 3.000,10.000 Z"/>
</g>
</svg>
